<svg width="261" height="198" viewBox="0 0 261 198" fill="none" xmlns="http://www.w3.org/2000/svg">
<path d="M202.994 85.1237C217.942 85.1237 230.108 72.9632 230.108 58.0092C230.108 43.0552 217.948 30.8947 202.994 30.8947C188.04 30.8947 175.879 43.0552 175.879 58.0092C175.879 72.9632 188.04 85.1237 202.994 85.1237ZM202.994 39.2216C213.353 39.2216 221.787 47.6496 221.787 58.0151C221.787 68.3807 213.359 76.8087 202.994 76.8087C192.628 76.8087 184.2 68.3807 184.2 58.0151C184.2 47.6496 192.628 39.2216 202.994 39.2216Z" fill="#F3764A"/>
<path d="M260.004 111.513C259.66 106.877 257.258 102.711 253.247 99.7746C249.015 96.684 243.309 95.0852 236.284 95.0317C209.704 94.8236 179.576 94.5859 158.916 56.3272C158.886 56.2737 158.857 56.2143 158.821 56.1608C154.809 49.4802 146.75 44.1964 137.775 47.4594C134.429 48.6778 131.784 50.8472 130.025 53.5991C128.265 50.8472 125.62 48.6778 122.274 47.4594C113.305 44.1964 105.24 49.4802 101.228 56.1608C101.198 56.2143 101.163 56.2677 101.133 56.3272C80.473 94.5918 50.3511 94.8236 23.7655 95.0317C7.15917 95.1624 0.609369 103.995 0.0447304 111.513C-0.644723 120.738 6.70747 128.946 17.1563 130.598C31.2782 132.833 48.2946 130.859 56.6393 129.588C55.6943 142.877 50.25 160.946 43.3258 167.513C34.0122 176.357 34.874 187.038 40.5382 193.023C43.4149 196.066 47.308 197.725 51.5398 197.725C51.6705 197.725 51.7953 197.725 51.9261 197.725C56.5621 197.612 61.1802 195.514 65.2754 191.644C75.3794 182.111 83.7717 169.992 88.1818 160.542L97.6915 180.375C99.5935 184.702 102.464 187.977 105.989 189.855C109.454 191.698 113.359 192.078 116.99 190.919C121.002 189.641 124.265 186.652 126.179 182.503C128.158 178.212 128.574 172.922 127.392 167.228L114.286 101.439C121.941 93.7419 126.993 85.2426 130.013 74.8414C133.038 85.2426 138.09 93.7419 145.739 101.439L132.64 167.192C131.445 172.916 131.861 178.212 133.846 182.503C135.76 186.652 139.029 189.641 143.035 190.919C146.667 192.072 150.571 191.698 154.037 189.855C157.567 187.977 160.438 184.702 162.334 180.375L171.843 160.542C176.254 169.986 184.646 182.111 194.75 191.644C198.851 195.508 203.463 197.612 208.099 197.725C208.23 197.725 208.355 197.725 208.486 197.725C212.711 197.725 216.61 196.066 219.487 193.023C225.151 187.038 226.013 176.352 216.7 167.513C209.775 160.94 204.331 142.877 203.386 129.588C211.731 130.854 228.747 132.833 242.869 130.598C253.312 128.946 260.67 120.738 259.981 111.513H260.004ZM124.027 63.5427C121.769 77.8072 116.657 87.8162 106.922 97.0168C105.882 97.9975 105.418 99.4477 105.698 100.85L119.249 168.892C120.949 177.041 118.078 181.843 114.476 182.99C110.975 184.108 107.374 181.742 105.293 176.976C105.276 176.928 105.252 176.886 105.228 176.839L91.1299 147.442C90.2918 145.689 88.3483 144.756 86.4582 145.183C84.5622 145.617 83.219 147.299 83.219 149.243C83.219 154.063 74.0064 171.965 59.5695 185.588C54.2381 190.616 49.2039 190.075 46.5828 187.3C43.8429 184.405 43.4506 178.866 49.0554 173.54C59.4507 163.674 65.4002 138.354 65.097 124.541C65.0673 123.317 64.5027 122.164 63.5458 121.391C62.8028 120.791 61.8756 120.47 60.9365 120.47C60.6691 120.47 60.4016 120.494 60.1401 120.547C59.9024 120.595 36.1162 125.16 18.4638 122.366C11.4801 121.261 8.04477 116.262 8.35383 112.119C8.75205 106.776 14.6897 103.406 23.8428 103.335C39.4208 103.21 54.5829 102.657 68.8237 97.2546C85.4419 90.9484 98.3929 78.8771 108.42 60.351C111.754 54.8591 116.295 54.1221 119.439 55.2633C122.013 56.1964 124.759 58.9245 124.027 63.5308V63.5427ZM241.597 122.378C223.945 125.177 200.159 120.607 199.921 120.559C198.714 120.327 197.472 120.631 196.515 121.403C195.558 122.17 194.994 123.323 194.964 124.553C194.655 138.366 200.61 163.686 211 173.552C216.604 178.878 216.212 184.417 213.472 187.311C210.851 190.081 205.817 190.628 200.486 185.6C186.043 171.977 176.836 154.069 176.836 149.255C176.836 147.311 175.493 145.629 173.597 145.195C173.288 145.124 172.979 145.094 172.676 145.094C171.101 145.094 169.627 145.992 168.925 147.454L154.827 176.851C154.803 176.898 154.785 176.94 154.762 176.987C152.681 181.754 149.08 184.12 145.579 183.002C141.983 181.855 139.106 177.053 140.812 168.869L154.357 100.862C154.637 99.4596 154.173 98.0094 153.133 97.0287C143.404 87.8281 138.286 77.8191 136.028 63.5546C135.296 58.9483 138.042 56.2202 140.616 55.2871C143.76 54.1459 148.301 54.8829 151.635 60.3747C161.662 78.9008 174.613 90.9782 191.231 97.2783C205.472 102.681 220.634 103.24 236.212 103.359C245.365 103.43 251.303 106.794 251.701 112.143C252.01 116.286 248.575 121.284 241.591 122.39L241.597 122.378Z" fill="#F3764A"/>
<path d="M57.0732 85.1237C72.0213 85.1237 84.1877 72.9632 84.1877 58.0092C84.1877 43.0552 72.0272 30.8947 57.0732 30.8947C42.1192 30.8947 29.9587 43.0552 29.9587 58.0092C29.9587 72.9632 42.1192 85.1237 57.0732 85.1237ZM57.0732 39.2216C67.4328 39.2216 75.8668 47.6496 75.8668 58.0151C75.8668 68.3807 67.4388 76.8087 57.0732 76.8087C46.7076 76.8087 38.2797 68.3807 38.2797 58.0151C38.2797 47.6496 46.7076 39.2216 57.0732 39.2216Z" fill="#F3764A"/>
<path d="M141.377 41.1057C142.334 41.1057 143.291 40.7788 144.075 40.1072L161.769 24.9927C163.517 23.5009 163.725 20.8738 162.233 19.1264C160.741 17.379 158.114 17.171 156.366 18.6628L138.672 33.7773C136.925 35.2691 136.717 37.8962 138.209 39.6436C139.029 40.6065 140.2 41.0998 141.377 41.0998V41.1057Z" fill="#F3764A"/>
<path d="M98.7495 24.9986L116.443 40.1131C117.228 40.7847 118.191 41.1116 119.142 41.1116C120.319 41.1116 121.484 40.6183 122.31 39.6554C123.802 37.908 123.594 35.281 121.846 33.7891L104.152 18.6747C102.405 17.1828 99.7777 17.3909 98.2859 19.1383C96.794 20.8857 97.0021 23.5127 98.7495 25.0046V24.9986Z" fill="#F3764A"/>
<path d="M130.256 31.6138C132.556 31.6138 134.417 29.7535 134.417 27.4533V4.16049C134.417 1.86034 132.556 0 130.256 0C127.956 0 126.096 1.86034 126.096 4.16049V27.4533C126.096 29.7535 127.956 31.6138 130.256 31.6138Z" fill="#F3764A"/>
</svg>
