<?xml version="1.0" encoding="UTF-8"?>
<svg id="Layer_1" xmlns="http://www.w3.org/2000/svg" version="1.1" viewBox="0 0 261 198">
  <!-- Generator: Adobe Illustrator 29.3.1, SVG Export Plug-In . SVG Version: 2.1.0 Build 151)  -->
  <defs>
    <style>
      .st0 {
        fill: #fb923c;
      }
    </style>
  </defs>
  <path class="st0" d="M203,85.1c14.9,0,27.1-12.2,27.1-27.1s-12.2-27.1-27.1-27.1-27.1,12.2-27.1,27.1,12.2,27.1,27.1,27.1ZM203,39.2c10.4,0,18.8,8.4,18.8,18.8s-8.4,18.8-18.8,18.8-18.8-8.4-18.8-18.8,8.4-18.8,18.8-18.8Z"/>
  <path class="st0" d="M260,111.5c-.3-4.6-2.7-8.8-6.8-11.7-4.2-3.1-9.9-4.7-17-4.7-26.6-.2-56.7-.4-77.4-38.7,0,0,0-.1,0-.2-4-6.7-12.1-12-21-8.7-3.3,1.2-6,3.4-7.8,6.1-1.8-2.8-4.4-4.9-7.8-6.1-9-3.3-17,2-21,8.7,0,0,0,.1,0,.2-20.7,38.3-50.8,38.5-77.4,38.7C7.2,95.2.6,104,0,111.5c-.7,9.2,6.7,17.4,17.1,19.1,14.1,2.2,31.1.3,39.5-1-.9,13.3-6.4,31.4-13.3,37.9-9.3,8.8-8.5,19.5-2.8,25.5,2.9,3,6.8,4.7,11,4.7h.4c4.6-.1,9.3-2.2,13.3-6.1,10.1-9.5,18.5-21.7,22.9-31.1l9.5,19.8c1.9,4.3,4.8,7.6,8.3,9.5,3.5,1.8,7.4,2.2,11,1.1,4-1.3,7.3-4.3,9.2-8.4,2-4.3,2.4-9.6,1.2-15.3l-13.1-65.8c7.7-7.7,12.7-16.2,15.7-26.6,3,10.4,8.1,18.9,15.7,26.6l-13.1,65.8c-1.2,5.7-.8,11,1.2,15.3,1.9,4.1,5.2,7.1,9.2,8.4,3.6,1.2,7.5.8,11-1.1,3.5-1.9,6.4-5.2,8.3-9.5l9.5-19.8c4.4,9.4,12.8,21.6,22.9,31.1,4.1,3.9,8.7,6,13.3,6.1h.4c4.2,0,8.1-1.7,11-4.7,5.7-6,6.5-16.7-2.8-25.5-6.9-6.6-12.4-24.6-13.3-37.9,8.3,1.3,25.4,3.2,39.5,1,10.4-1.7,17.8-9.9,17.1-19.1h0ZM124,63.5c-2.3,14.3-7.4,24.3-17.1,33.5-1,1-1.5,2.4-1.2,3.8l13.6,68c1.7,8.1-1.2,13-4.8,14.1-3.5,1.1-7.1-1.2-9.2-6,0,0,0,0,0-.1l-14.1-29.4c-.8-1.8-2.8-2.7-4.7-2.3-1.9.4-3.2,2.1-3.2,4.1,0,4.8-9.2,22.7-23.6,36.3-5.3,5-10.4,4.5-13,1.7-2.7-2.9-3.1-8.4,2.5-13.8,10.4-9.9,16.3-35.2,16-49,0-1.2-.6-2.4-1.6-3.2-.7-.6-1.7-.9-2.6-.9s-.5,0-.8,0c-.2,0-24,4.6-41.7,1.8-7-1.1-10.4-6.1-10.1-10.2.4-5.3,6.3-8.7,15.5-8.8,15.6-.1,30.7-.7,45-6.1,16.6-6.3,29.6-18.4,39.6-36.9,3.3-5.5,7.9-6.2,11-5.1,2.6.9,5.3,3.7,4.6,8.3h0ZM241.6,122.4c-17.7,2.8-41.4-1.8-41.7-1.8-1.2-.2-2.4,0-3.4.8-1,.8-1.5,1.9-1.6,3.2-.3,13.8,5.6,39.1,16,49,5.6,5.3,5.2,10.9,2.5,13.8-2.6,2.8-7.7,3.3-13-1.7-14.4-13.6-23.6-31.5-23.6-36.3s-1.3-3.6-3.2-4.1c-.3,0-.6-.1-.9-.1-1.6,0-3,.9-3.8,2.4l-14.1,29.4s0,0,0,.1c-2.1,4.8-5.7,7.1-9.2,6-3.6-1.1-6.5-5.9-4.8-14.1l13.5-68c.3-1.4-.2-2.9-1.2-3.8-9.7-9.2-14.8-19.2-17.1-33.5-.7-4.6,2-7.3,4.6-8.3,3.1-1.1,7.7-.4,11,5.1,10,18.5,23,30.6,39.6,36.9,14.2,5.4,29.4,6,45,6.1,9.2,0,15.1,3.4,15.5,8.8.3,4.1-3.1,9.1-10.1,10.2h0Z"/>
  <path class="st0" d="M57.1,85.1c14.9,0,27.1-12.2,27.1-27.1s-12.2-27.1-27.1-27.1-27.1,12.2-27.1,27.1,12.2,27.1,27.1,27.1ZM57.1,39.2c10.4,0,18.8,8.4,18.8,18.8s-8.4,18.8-18.8,18.8-18.8-8.4-18.8-18.8,8.4-18.8,18.8-18.8Z"/>
  <path class="st0" d="M141.4,41.1c1,0,1.9-.3,2.7-1l17.7-15.1c1.7-1.5,2-4.1.5-5.9s-4.1-2-5.9-.5l-17.7,15.1c-1.7,1.5-2,4.1-.5,5.9.8,1,2,1.5,3.2,1.5h0Z"/>
  <path class="st0" d="M98.7,25l17.7,15.1c.8.7,1.7,1,2.7,1s2.3-.5,3.2-1.5c1.5-1.7,1.3-4.4-.5-5.9l-17.7-15.1c-1.7-1.5-4.4-1.3-5.9.5-1.5,1.7-1.3,4.4.5,5.9h0Z"/>
  <path class="st0" d="M130.3,31.6c2.3,0,4.2-1.9,4.2-4.2V4.2c0-2.3-1.9-4.2-4.2-4.2s-4.2,1.9-4.2,4.2v23.3c0,2.3,1.9,4.2,4.2,4.2Z"/>
</svg>